<svg xmlns="http://www.w3.org/2000/svg" width="13.8" height="13.8" viewBox="0 0 13.8 13.8"><defs><style>.a{fill:#b3b3b3;}</style></defs><path class="a" d="M11.16,13.8H2.64a.94.94,0,0,1-.94-.94V2.08a.38.38,0,1,1,.75,0V12.86a.2.2,0,0,0,.19.19h8.52a.2.2,0,0,0,.19-.19V2.08a.38.38,0,1,1,.75,0V12.86A1,1,0,0,1,11.16,13.8Z"/><path class="a" d="M9.45,2.45a.38.38,0,0,1-.37-.37V.94A.2.2,0,0,0,8.89.75h-4a.2.2,0,0,0-.19.19V2.08a.38.38,0,0,1-.75,0V.94A.94.94,0,0,1,4.91,0h4a.94.94,0,0,1,.94.94V2.08A.38.38,0,0,1,9.45,2.45Z"/><path class="a" d="M13.42,2.45H.38a.38.38,0,1,1,0-.75h13a.38.38,0,1,1,0,.75Z"/><path class="a" d="M4.35,11.25A.38.38,0,0,1,4,10.87V4.06a.38.38,0,0,1,.75,0v6.81A.38.38,0,0,1,4.35,11.25Z"/><path class="a" d="M6.9,11.25a.38.38,0,0,1-.38-.38V4.06a.38.38,0,0,1,.38-.37.37.37,0,0,1,.37.37v6.81A.37.37,0,0,1,6.9,11.25Z"/><path class="a" d="M9.45,11.25a.38.38,0,0,1-.37-.38V4.06a.38.38,0,0,1,.75,0v6.81A.38.38,0,0,1,9.45,11.25Z"/></svg>