<svg xmlns="http://www.w3.org/2000/svg" width="12.72" height="13.8" viewBox="0 0 12.72 13.8"><defs><style>.a{fill:#0060ff;}</style></defs><path class="a" d="M12,13.8H.38A.38.38,0,0,1,0,13.42a.37.37,0,0,1,.38-.37H12a.37.37,0,0,1,.37.37A.38.38,0,0,1,12,13.8Z"/><path class="a" d="M1.46,11.62a.38.38,0,0,1-.27-.1.39.39,0,0,1-.09-.37l1-3.6a.39.39,0,0,1,.1-.16L9.15.47a1.66,1.66,0,0,1,2.32,0l.77.77a1.64,1.64,0,0,1,0,2.32L5.31,10.49a.32.32,0,0,1-.16.09l-3.59,1ZM2.82,7.85,2,10.7l2.85-.81L11.71,3a.89.89,0,0,0,0-1.26L10.94,1A.89.89,0,0,0,9.68,1Zm2.23,2.37h0Z"/><path class="a" d="M11,4.7a.4.4,0,0,1-.27-.11L8.12,2a.37.37,0,0,1,0-.53.39.39,0,0,1,.53,0l2.56,2.57a.37.37,0,0,1,0,.53A.36.36,0,0,1,11,4.7Z"/></svg>